<svg width="20" height="20" viewBox="0 0 20 20" fill="none" xmlns="http://www.w3.org/2000/svg">
<path d="M19.6357 10.3571C19.6357 15.6827 15.3184 20 9.99283 20C4.66723 20 0.349976 15.6827 0.349976 10.3571C0.349976 5.03154 4.66723 0.714286 9.99283 0.714286C15.3184 0.714286 19.6357 5.03154 19.6357 10.3571Z" fill="#04050C"/>
<path d="M19.6357 9.64286C19.6357 14.9685 15.3184 19.2857 9.99283 19.2857C4.66723 19.2857 0.349976 14.9685 0.349976 9.64286C0.349976 4.31725 4.66723 0 9.99283 0C15.3184 0 19.6357 4.31725 19.6357 9.64286Z" fill="#0085FF"/>
<path fill-rule="evenodd" clip-rule="evenodd" d="M11.2596 1.71985C11.166 1.83814 10.3975 2.53579 10.3594 2.53692C10.3324 2.53774 9.96949 2.90398 9.96949 2.93043C9.96949 2.94044 9.77623 3.15782 9.54 3.41349C9.13465 3.85223 8.89766 4.12981 8.37424 4.77892C8.03647 5.1978 7.20852 6.3964 7.03606 6.71617C6.98903 6.80336 6.84706 7.05451 6.72058 7.27429C6.5117 7.63715 6.2408 8.16863 6.11615 8.46007C5.86773 9.04086 5.67807 9.54869 5.60444 9.83028C5.57485 9.94336 5.5581 10.0097 5.48706 10.2946C5.37762 10.7334 5.30893 11.4694 5.34759 11.7888C5.36178 11.906 5.37338 12.0869 5.37338 12.1909C5.37338 12.2957 5.38963 12.4402 5.40984 12.515C5.42988 12.5892 5.45386 12.6958 5.46312 12.7519C5.47974 12.8526 5.54491 13.1445 5.60471 13.386C5.64736 13.5583 5.79799 13.9724 5.89712 14.19C6.1837 14.8192 6.72274 15.4983 7.24884 15.8932C7.651 16.195 8.13007 16.4466 8.54157 16.5721C8.97412 16.7041 9.56981 16.7873 10.0704 16.7857C10.3059 16.785 10.8342 16.7284 10.9289 16.6938C10.9596 16.6826 11.0248 16.6669 11.0739 16.659C11.1726 16.6431 11.2151 16.6307 11.4755 16.5423C11.7819 16.4382 11.8209 16.4221 12.0445 16.3087C12.7202 15.9658 13.2848 15.4896 13.7236 14.8926C13.8413 14.7324 14.164 14.2042 14.164 14.1717C14.164 14.1648 14.1941 14.0932 14.2309 14.0124C14.2677 13.9317 14.2979 13.8586 14.2979 13.8501C14.2979 13.8415 14.3121 13.8024 14.3296 13.7631C14.3781 13.6539 14.4684 13.3665 14.498 13.2275C14.5125 13.159 14.5341 13.0705 14.5459 13.0309C14.5743 12.9354 14.6257 12.525 14.6446 12.2423C14.6615 11.9891 14.6266 11.5127 14.5732 11.2684C14.5541 11.1812 14.5309 11.064 14.5216 11.008C14.4934 10.8384 14.3229 10.3778 14.1904 10.1134C14.0414 9.8159 13.5568 9.0414 13.1275 8.41477C12.9568 8.16564 12.7869 7.91595 12.7498 7.8599C12.7128 7.80384 12.5683 7.59179 12.4289 7.38866C12.2895 7.18553 12.0924 6.87978 11.9909 6.70922C11.8894 6.53865 11.7689 6.33994 11.7231 6.26762C11.65 6.15212 11.4983 5.85629 11.39 5.61774C11.3547 5.54008 11.2717 5.28773 11.2075 5.06286C11.1897 5.00058 11.1534 4.83751 11.1268 4.70049C11.0833 4.47657 11.0782 4.37348 11.0762 3.68133C11.0742 3.01763 11.0793 2.8894 11.113 2.75276C11.1345 2.66556 11.1684 2.52798 11.1883 2.44701C11.2082 2.36604 11.2323 2.24687 11.2419 2.18216C11.2515 2.11748 11.2668 2.0523 11.2759 2.03733C11.2851 2.02234 11.3047 1.94787 11.3196 1.87184C11.3345 1.79581 11.3541 1.71577 11.3633 1.69396C11.3908 1.62822 11.3176 1.64649 11.2596 1.71985ZM12.5875 9.26639C12.7288 9.36142 12.867 9.52525 13.0343 9.7963C13.3033 10.2322 13.5301 10.7396 13.594 11.0483C13.6385 11.2636 13.6615 11.8276 13.6322 11.9858C13.5966 12.1777 13.4753 12.4435 13.3645 12.572C13.3059 12.6401 13.2133 12.7131 13.1346 12.7535C13.0189 12.8128 12.9789 12.8211 12.8072 12.8219C12.5977 12.8229 12.4897 12.7954 12.3294 12.7001C12.1296 12.5812 11.9982 12.3814 11.9512 12.1251C11.9267 11.9909 11.9284 11.9813 12.0417 11.6284C12.2993 10.826 12.2822 10.8857 12.3919 10.4078C12.502 9.92809 12.5389 9.48315 12.4836 9.30371C12.4653 9.24453 12.4577 9.19613 12.4667 9.19613C12.4757 9.19613 12.53 9.22775 12.5875 9.26639Z" fill="#04050C"/>
</svg>
