<svg width="20" height="20" viewBox="0 0 20 20" fill="none" xmlns="http://www.w3.org/2000/svg">
<path d="M1.66667 1.86666C1.66667 1.7562 1.75621 1.66666 1.86667 1.66666H18.1333C18.2438 1.66666 18.3333 1.7562 18.3333 1.86666V18.1333C18.3333 18.2438 18.2438 18.3333 18.1333 18.3333H1.86667C1.75621 18.3333 1.66667 18.2438 1.66667 18.1333V1.86666Z" fill="#04050C"/>
<path d="M10.7435 6.9466C10.5221 6.9466 10.3247 7.01605 10.151 7.15494C9.97743 7.28949 9.83203 7.48697 9.71485 7.74739C9.59766 8.00346 9.50868 8.31596 9.44792 8.68489C9.38715 9.05381 9.35677 9.47048 9.35677 9.93489C9.35677 10.5772 9.41103 11.1133 9.51953 11.543C9.63238 11.9726 9.79948 12.2938 10.0208 12.5065C10.2422 12.7192 10.52 12.8255 10.8542 12.8255C11.1623 12.8255 11.4575 12.7669 11.7396 12.6497C11.9249 12.5739 12.1101 12.4882 12.2954 12.3924C12.4321 12.3217 12.599 12.4186 12.599 12.5725V14.1432C12.599 14.2142 12.5615 14.2802 12.4991 14.3141C12.2232 14.464 11.9267 14.5776 11.6094 14.6549C11.2578 14.7417 10.8846 14.7851 10.4896 14.7851C9.73438 14.7851 9.09636 14.5985 8.57552 14.2253C8.05903 13.852 7.66623 13.3029 7.39714 12.5781C7.13238 11.8533 7 10.9679 7 9.92187C7 9.18836 7.0803 8.51996 7.24089 7.91666C7.40582 7.31336 7.64236 6.79469 7.95052 6.36067C8.25868 5.92664 8.62978 5.59244 9.0638 5.35806C9.50217 5.11935 9.99696 4.99999 10.5482 4.99999C10.9692 4.99999 11.3728 5.05424 11.7591 5.16275C12.1031 5.25831 12.4438 5.401 12.7811 5.59081C12.862 5.63634 12.8979 5.73302 12.8695 5.82139L12.4024 7.27324C12.3611 7.40178 12.2068 7.45313 12.0918 7.38232C11.9147 7.27326 11.7365 7.18228 11.5573 7.10936C11.3012 7.00086 11.0299 6.9466 10.7435 6.9466Z" fill="#F4F4F2"/>
</svg>
