<svg width="28" height="26" viewBox="0 0 28 26" fill="none" xmlns="http://www.w3.org/2000/svg">
<path d="M20 0.766663C16.4407 0.766663 14.3313 3.26694 14.0237 4.24567C14.0173 4.26612 13.984 4.26577 13.9784 4.24506C13.716 3.27113 12.306 0.766663 8.00002 0.766663C3.89335 0.766663 0.666687 3.99333 0.666687 8.1C0.666687 13.14 5.20002 17.2467 12.0667 23.4867L13.8654 25.1117C13.9418 25.1807 14.058 25.1805 14.1341 25.1112L15.9334 23.4733C22.8 17.2467 27.3334 13.14 27.3334 8.1C27.3334 3.99333 24.1067 0.766663 20 0.766663ZM14.1334 21.5C14.0597 21.5736 13.9403 21.5736 13.8667 21.5C7.52002 15.7533 3.33335 11.9533 3.33335 8.1C3.33335 5.43333 5.33335 3.43333 8.00002 3.43333C12.0855 3.43333 13.3105 6.27942 13.9812 8.27707C13.9873 8.29529 14.0127 8.29532 14.0189 8.2771C14.6918 6.27945 16.0374 3.43333 20 3.43333C22.6667 3.43333 24.6667 5.43333 24.6667 8.1C24.6667 11.9533 20.48 15.7533 14.1334 21.5Z" fill="#FF5921"
/>
</svg>
