<svg width="18" height="18" viewBox="0 0 18 18" fill="none" xmlns="http://www.w3.org/2000/svg">
<path d="M10.25 13.74C10.25 14.43 9.72 15 9 15C8.3 15 7.74 14.44 7.74 13.74C7.74 13.03 8.3 12.49 9 12.49C9.71 12.49 10.25 13.04 10.25 13.74ZM8.99 3C7.29734 3 6.11681 4.0517 5.62333 5.31551C5.58525 5.41304 5.63464 5.5214 5.73114 5.56201L7.00008 6.09589C7.10778 6.1412 7.2306 6.08469 7.2749 5.97658C7.52894 5.35668 8.04558 4.7 9 4.7C10.62 4.7 10.94 6.22 10.37 7.03C9.83 7.8 8.9 8.32 8.41 9.19C8.06933 9.79273 8.08728 10.4794 8.09727 10.9701C8.09952 11.0805 8.18954 11.17 8.3 11.17H9.72C9.83046 11.17 9.91978 11.08 9.92123 10.9695C9.93116 10.2104 10.0015 10.0279 10.14 9.76C10.53 9.04 11.25 8.7 12.01 7.59C12.69 6.59 12.43 5.23 11.99 4.51C11.48 3.67 10.47 3 8.99 3ZM16 2.2C16 2.08954 15.9105 2 15.8 2H2.2C2.08954 2 2 2.08954 2 2.2V15.8C2 15.9105 2.08954 16 2.2 16H15.8C15.9105 16 16 15.9105 16 15.8V2.2ZM17.8 0C17.9105 0 18 0.0894553 18 0.199912C18 0.524767 18 1.21093 18 2V17.8C18 17.9105 17.9105 18 17.8 18H0.20006C0.0896031 18 6.07019e-05 17.9105 6.03275e-05 17.8L6.77832e-07 0.200004C3.03473e-07 0.0895473 0.0894549 5.14801e-06 0.199912 4.58498e-06C0.524766 2.9291e-06 1.21092 0 2 0H17.8Z" fill="#BABAB8"/>
</svg>
