<svg width="12" height="12" viewBox="0 0 12 12" fill="none" xmlns="http://www.w3.org/2000/svg">
<path d="M12 0.200029C12 0.0895718 11.9105 2.82784e-05 11.8 2.80162e-05L0.199902 4.74848e-07C0.0894444 2.12597e-07 -9.91821e-05 0.0895434 -9.91821e-05 0.2V11.8C-9.91821e-05 11.9105 0.0894439 12 0.199901 12H11.7999C11.9104 12 11.9999 11.9105 11.9999 11.8L12 0.200029ZM10.6667 10.4666C10.6667 10.5771 10.5771 10.6666 10.4667 10.6666H1.53333C1.42288 10.6666 1.33334 10.5771 1.33334 10.4666V1.5333C1.33334 1.42285 1.42288 1.3333 1.53334 1.3333H10.4667C10.5771 1.3333 10.6667 1.42285 10.6667 1.5333V10.4666ZM2.66667 5.53331C2.66667 5.42285 2.75621 5.3333 2.86667 5.3333H9.13334C9.24379 5.3333 9.33334 5.42285 9.33334 5.5333V6.46664C9.33334 6.5771 9.24379 6.66664 9.13334 6.66664H2.86667C2.75621 6.66664 2.66667 6.5771 2.66667 6.46664V5.53331Z" fill="#CECECE"/>
</svg>
