<svg width="145" height="24" viewBox="0 0 145 24" fill="none" xmlns="http://www.w3.org/2000/svg">
<path d="M2 2H22V22H2V2Z" fill="#04050C"/>
<path fill-rule="evenodd" clip-rule="evenodd" d="M2.2 2C2.08954 2 2 2.08954 2 2.2V21.8C2 21.9105 2.08954 22 2.2 22H21.8C21.9105 22 22 21.9105 22 21.8V2.2C22 2.08954 21.9105 2 21.8 2H2.2Z" fill="#BECCCF"/>
<path d="M15.8332 16.9941H13.0578L10.4533 10.7803H10.3986C10.426 11.1449 10.4465 11.4844 10.4602 11.7988C10.4784 12.1087 10.4898 12.3913 10.4943 12.6465C10.5035 12.8971 10.508 13.1182 10.508 13.3096V16.9941H8.3V7H11.0549L13.6457 13.043H13.7004C13.6822 12.7057 13.6662 12.3913 13.6525 12.0996C13.6389 11.8079 13.6275 11.5391 13.6184 11.293C13.6092 11.0469 13.6047 10.8236 13.6047 10.623V7H15.8332V16.9941Z" fill="#BECCCF"/>
<path d="M37.76 6.8H39.12V18.56L30.64 9.664V18H29.28V6.24L37.76 15.136V6.8ZM41.2163 14.32C41.2163 13.5733 41.3816 12.912 41.7122 12.336C42.0536 11.76 42.5123 11.3067 43.0883 10.976C43.6643 10.6453 44.3096 10.48 45.0243 10.48C45.7496 10.48 46.3949 10.6453 46.9603 10.976C47.5363 11.3067 47.9896 11.76 48.3203 12.336C48.6616 12.912 48.8323 13.5733 48.8323 14.32C48.8323 15.056 48.6616 15.7173 48.3203 16.304C47.9896 16.88 47.5363 17.3333 46.9603 17.664C46.3949 17.9947 45.7496 18.16 45.0243 18.16C44.3096 18.16 43.6643 17.9947 43.0883 17.664C42.5123 17.3333 42.0536 16.88 41.7122 16.304C41.3816 15.7173 41.2163 15.056 41.2163 14.32ZM42.5123 14.32C42.5123 14.832 42.6189 15.2853 42.8323 15.68C43.0563 16.0747 43.3549 16.3893 43.7283 16.624C44.1123 16.848 44.5443 16.96 45.0243 16.96C45.5043 16.96 45.9309 16.848 46.3043 16.624C46.6883 16.3893 46.9869 16.0747 47.2003 15.68C47.4243 15.2853 47.5363 14.832 47.5363 14.32C47.5363 13.808 47.4243 13.3547 47.2003 12.96C46.9869 12.5547 46.6883 12.24 46.3043 12.016C45.9309 11.792 45.5043 11.68 45.0243 11.68C44.5443 11.68 44.1123 11.792 43.7283 12.016C43.3549 12.24 43.0563 12.5547 42.8323 12.96C42.6189 13.3547 42.5123 13.808 42.5123 14.32ZM52.1206 10.64V18H50.8406V10.64H52.1206ZM54.3446 12.048C54.174 11.92 54.0193 11.8293 53.8806 11.776C53.742 11.712 53.566 11.68 53.3526 11.68C53.0326 11.68 52.782 11.76 52.6006 11.92C52.4193 12.08 52.2913 12.2987 52.2166 12.576C52.1526 12.8533 52.1206 13.168 52.1206 13.52H51.5446C51.5446 12.9333 51.646 12.416 51.8486 11.968C52.062 11.5093 52.334 11.1467 52.6646 10.88C52.9953 10.6133 53.3313 10.48 53.6726 10.48C53.9393 10.48 54.1846 10.5173 54.4086 10.592C54.6433 10.656 54.8566 10.7893 55.0486 10.992L54.3446 12.048ZM66.655 13.36V18H65.375V13.52C65.375 12.8907 65.2577 12.4267 65.023 12.128C64.799 11.8293 64.447 11.68 63.967 11.68C63.615 11.68 63.311 11.7547 63.055 11.904C62.799 12.0427 62.6017 12.2507 62.463 12.528C62.3243 12.8053 62.255 13.136 62.255 13.52V18H60.975V13.52C60.975 12.8907 60.8577 12.4267 60.623 12.128C60.399 11.8293 60.047 11.68 59.567 11.68C59.215 11.68 58.911 11.7547 58.655 11.904C58.399 12.0427 58.2017 12.2507 58.063 12.528C57.9243 12.8053 57.855 13.136 57.855 13.52V18H56.575V10.64H57.855V11.712C58.079 11.296 58.3563 10.9867 58.687 10.784C59.0283 10.5813 59.4283 10.48 59.887 10.48C60.399 10.48 60.8363 10.6027 61.199 10.848C61.5723 11.0827 61.8443 11.4187 62.015 11.856C62.271 11.3973 62.591 11.056 62.975 10.832C63.359 10.5973 63.7963 10.48 64.287 10.48C64.7883 10.48 65.215 10.592 65.567 10.816C65.919 11.04 66.1857 11.3707 66.367 11.808C66.559 12.2347 66.655 12.752 66.655 13.36ZM69.8854 15.728C69.8854 16.0053 69.9494 16.2453 70.0774 16.448C70.216 16.6507 70.4027 16.8053 70.6374 16.912C70.8827 17.008 71.16 17.056 71.4694 17.056C71.864 17.056 72.216 16.976 72.5254 16.816C72.8454 16.656 73.096 16.432 73.2774 16.144C73.4694 15.8453 73.5654 15.504 73.5654 15.12L73.8214 16.08C73.8214 16.5493 73.6774 16.9387 73.3894 17.248C73.112 17.5573 72.7654 17.7867 72.3494 17.936C71.944 18.0853 71.5387 18.16 71.1334 18.16C70.6854 18.16 70.264 18.0693 69.8694 17.888C69.4854 17.696 69.176 17.424 68.9414 17.072C68.7067 16.72 68.5894 16.2933 68.5894 15.792C68.5894 15.0773 68.84 14.5067 69.3414 14.08C69.8534 13.6427 70.5627 13.424 71.4694 13.424C72.0027 13.424 72.4454 13.488 72.7974 13.616C73.16 13.7333 73.448 13.872 73.6614 14.032C73.8747 14.1813 74.0187 14.304 74.0934 14.4V15.152C73.72 14.896 73.336 14.7147 72.9414 14.608C72.5467 14.4907 72.1254 14.432 71.6774 14.432C71.2614 14.432 70.92 14.4853 70.6534 14.592C70.3974 14.6987 70.2054 14.848 70.0774 15.04C69.9494 15.232 69.8854 15.4613 69.8854 15.728ZM69.6934 12.336L69.0694 11.392C69.3467 11.1893 69.7254 10.9867 70.2054 10.784C70.696 10.5813 71.2827 10.48 71.9654 10.48C72.5414 10.48 73.0427 10.5707 73.4694 10.752C73.9067 10.9227 74.2427 11.1733 74.4774 11.504C74.7227 11.8347 74.8454 12.24 74.8454 12.72V18H73.5654V12.896C73.5654 12.64 73.5227 12.432 73.4374 12.272C73.352 12.1013 73.2294 11.968 73.0694 11.872C72.92 11.776 72.744 11.7067 72.5414 11.664C72.3387 11.6213 72.1254 11.6 71.9014 11.6C71.5387 11.6 71.208 11.6427 70.9094 11.728C70.6214 11.8133 70.376 11.9147 70.1734 12.032C69.9707 12.1493 69.8107 12.2507 69.6934 12.336ZM77.2625 5.52H78.5425V18H77.2625V5.52Z" fill="#727270"/>
</svg>
