<svg width="12" height="12" viewBox="0 0 12 12" fill="none" xmlns="http://www.w3.org/2000/svg">
<path d="M12 0.2C12 0.0895428 11.9104 0 11.8 0H0.199985C0.0895275 0 -1.51516e-05 0.0895432 -1.50194e-05 0.2L-1.13348e-06 11.8C-1.00126e-06 11.9105 0.089542 12 0.199999 12H11.8C11.9104 12 12 11.9105 12 11.8V0.2ZM10.6667 10.4667C10.6667 10.5771 10.5771 10.6667 10.4667 10.6667H1.53333C1.42288 10.6667 1.33333 10.5771 1.33333 10.4667V1.53333C1.33333 1.42288 1.42288 1.33333 1.53333 1.33333H10.4667C10.5771 1.33333 10.6667 1.42288 10.6667 1.53333V10.4667ZM5.33333 9.13333C5.33333 9.24379 5.42288 9.33333 5.53333 9.33333H6.46667C6.57712 9.33333 6.66667 9.24379 6.66667 9.13333V6.86667C6.66667 6.75621 6.75621 6.66667 6.86667 6.66667H9.13333C9.24379 6.66667 9.33333 6.57712 9.33333 6.46667V5.53333C9.33333 5.42288 9.24379 5.33333 9.13333 5.33333H6.86667C6.75621 5.33333 6.66667 5.24379 6.66667 5.13333V2.86667C6.66667 2.75621 6.57712 2.66667 6.46667 2.66667H5.53333C5.42288 2.66667 5.33333 2.75621 5.33333 2.86667V5.13333C5.33333 5.24379 5.24379 5.33333 5.13333 5.33333H2.86667C2.75621 5.33333 2.66667 5.42288 2.66667 5.53333V6.46667C2.66667 6.57712 2.75621 6.66667 2.86667 6.66667H5.13333C5.24379 6.66667 5.33333 6.75621 5.33333 6.86667V9.13333Z" fill="#BABAB8"/>
</svg>
