<svg width="24" height="24" viewBox="0 0 24 24" fill="none" xmlns="http://www.w3.org/2000/svg">
<path d="M21 3.2C21 3.08954 20.9105 3 20.8 3H3.2C3.08954 3 3 3.08954 3 3.2V20.8C3 20.9105 3.08954 21 3.2 21H20.8C20.9105 21 21 20.9105 21 20.8V3.2ZM17 12.8C17 12.9105 16.9105 13 16.8 13H13.2C13.0895 13 13 13.0895 13 13.2V16.8C13 16.9105 12.9105 17 12.8 17H11.2C11.0895 17 11 16.9105 11 16.8V13.2C11 13.0895 10.9105 13 10.8 13H7.2C7.08954 13 7 12.9105 7 12.8V11.2C7 11.0895 7.08954 11 7.2 11H10.8C10.9105 11 11 10.9105 11 10.8V7.2C11 7.08954 11.0895 7 11.2 7H12.8C12.9105 7 13 7.08954 13 7.2V10.8C13 10.9105 13.0895 11 13.2 11H16.8C16.9105 11 17 11.0895 17 11.2V12.8Z" fill="#DAEDCE"/>
</svg>
