<svg width="24" height="24" viewBox="0 0 24 24" fill="none" xmlns="http://www.w3.org/2000/svg">
<path d="M4.1 10C4.04477 10 4 10.0448 4 10.1V13.9C4 13.9552 4.04477 14 4.1 14H7.9C7.95523 14 8 13.9552 8 13.9V10.1C8 10.0448 7.95523 10 7.9 10H4.1Z" fill="#FF5921"/>
<path d="M10.1 10C10.0448 10 10 10.0448 10 10.1V13.9C10 13.9552 10.0448 14 10.1 14H13.9C13.9552 14 14 13.9552 14 13.9V10.1C14 10.0448 13.9552 10 13.9 10H10.1Z" fill="#FF5921"/>
<path d="M16.1 10C16.0448 10 16 10.0448 16 10.1V13.9C16 13.9552 16.0448 14 16.1 14H19.9C19.9552 14 20 13.9552 20 13.9V10.1C20 10.0448 19.9552 10 19.9 10H16.1Z" fill="#FF5921"/>
</svg>
