<svg width="32" height="32" viewBox="0 0 32 32" fill="none" xmlns="http://www.w3.org/2000/svg">
<path d="M4.13333 22.6667C4.0597 22.6667 4 22.7264 4 22.8V25.2C4 25.2736 4.0597 25.3333 4.13333 25.3333H18.6667V22.6667H4.13333ZM4.13333 6.66667C4.0597 6.66667 4 6.72636 4 6.8V9.2C4 9.27364 4.0597 9.33334 4.13333 9.33334H16V6.66667H4.13333ZM24 25.3333H27.8667C27.9403 25.3333 28 25.2736 28 25.2V22.8C28 22.7264 27.9403 22.6667 27.8667 22.6667H24V25.3333ZM4.13333 14.6667C4.0597 14.6667 4 14.7264 4 14.8V17.2C4 17.2736 4.0597 17.3333 4.13333 17.3333H10.6667V14.6667H4.13333ZM27.8667 17.3333C27.9403 17.3333 28 17.2736 28 17.2V14.8C28 14.7264 27.9403 14.6667 27.8667 14.6667H16V17.3333H27.8667ZM21.3333 9.33334H27.8667C27.9403 9.33334 28 9.27364 28 9.2V6.8C28 6.72636 27.9403 6.66667 27.8667 6.66667H21.3333V9.33334Z" fill="#262625"/>
<path d="M10.6667 18.4C10.6667 18.5473 10.7861 18.6667 10.9333 18.6667H15.7333C15.8806 18.6667 16 18.5473 16 18.4V13.6C16 13.4527 15.8806 13.3333 15.7333 13.3333H10.9333C10.7861 13.3333 10.6667 13.4527 10.6667 13.6V18.4Z" fill="#262625"/>
<path d="M18.6667 26.4C18.6667 26.5473 18.7861 26.6667 18.9333 26.6667H23.7333C23.8806 26.6667 24 26.5473 24 26.4V21.6C24 21.4527 23.8806 21.3333 23.7333 21.3333H18.9333C18.7861 21.3333 18.6667 21.4527 18.6667 21.6V26.4Z" fill="#262625"/>
<path d="M16 10.4C16 10.5473 16.1194 10.6667 16.2667 10.6667H21.0667C21.2139 10.6667 21.3333 10.5473 21.3333 10.4V5.6C21.3333 5.45273 21.2139 5.33334 21.0667 5.33334H16.2667C16.1194 5.33334 16 5.45273 16 5.6V10.4Z" fill="#262625"/>
</svg>
